/* XPM */
static char *player[] = {
/* columns rows colors chars-per-pixel */
"32 32 3 1",
"  c None",
". c #E4E4E4",
"+ c gray11",
/* pixels */
"                                ",
"                                ",
"                                ",
"                                ",
"          ++++++++++            ",
"          +........+            ",
"          +........+            ",
"          +........+            ",
"          +........+            ",
"          +........+            ",
"          +........+            ",
"          +........+            ",
"          +........+            ",
"          +........+            ",
"          +........+            ",
"          ++++++++++            ",
"            ++++++              ",
"            +....+              ",
"            +....+              ",
"            +....+              ",
"            +....+              ",
"            +....+              ",
"            ++++++              ",
"                                ",
"                                ",
"                                ",
"                                ",
"                                ",
"                                ",
"                                ",
"                                ",
"                                "
};
